{"accessors":[{"bufferView":0,"byteOffset":0,"componentType":5126,"count":22,"max":[-0.007,0.004,0.017],"min":[-0.007,-0.004272059531468,-0.0165],"type":"VEC3"},{"bufferView":0,"byteOffset":264,"componentType":5126,"count":8,"max":[-0.006532088886238001,-0.004272059531468,-0.016],"min":[-0.007,-0.005557634750841,-0.0165],"type":"VEC3"},{"bufferView":0,"byteOffset":360,"componentType":5126,"count":16,"max":[-0.006,-0.0011999999999999997,-0.015],"min":[-0.007,-0.004272059531468,-0.016],"type":"VEC3"},{"bufferView":0,"byteOffset":552,"componentType":5126,"count":16,"max":[-0.005,0.004,-0.0165],"min":[-0.007,-0.004272059531468001,-0.0185],"type":"VEC3"},{"bufferView":0,"byteOffset":744,"componentType":5126,"count":64,"max":[-0.006,0.0028,-0.012],"min":[-0.007,-0.0012000000000000002,-0.016],"type":"VEC3"},{"bufferView":0,"byteOffset":1512,"componentType":5126,"count":16,"max":[-0.006,0.005,0.017],"min":[-0.007,0.004,-0.0165],"type":"VEC3"},{"bufferView":0,"byteOffset":1704,"componentType":5126,"count":16,"max":[-0.006,0.0028,0.0125],"min":[-0.007,0.0018000000000000002,-0.012],"type":"VEC3"},{"bufferView":0,"byteOffset":1896,"componentType":5126,"count":16,"max":[-0.005,0.004,0.019],"min":[-0.007,-0.004272059531468,0.017],"type":"VEC3"},{"bufferView":0,"byteOffset":2088,"componentType":5126,"count":64,"max":[-0.006,0.0028,0.0165],"min":[-0.007,-0.0012000000000000004,0.0125],"type":"VEC3"},{"bufferView":0,"byteOffset":2856,"componentType":5126,"count":8,"max":[-0.006532088886238001,-0.004272059531468,0.017],"min":[-0.007,-0.005557634750841,0.0165],"type":"VEC3"},{"bufferView":0,"byteOffset":2952,"componentType":5126,"count":16,"max":[-0.006,-0.0012,0.0165],"min":[-0.007,-0.004272059531468,0.0155],"type":"VEC3"},{"bufferView":0,"byteOffset":3144,"componentType":5126,"count":32,"max":[-0.005766044443119,-0.004272059531468,-0.015],"min":[-0.007,-0.005557634750841,-0.016],"type":"VEC3"},{"bufferView":0,"byteOffset":3528,"componentType":5126,"count":28,"max":[-0.005,-0.004272059531468,-0.0165],"min":[-0.007,-0.005557634750841,-0.0185],"type":"VEC3"},{"bufferView":0,"byteOffset":3864,"componentType":5126,"count":4,"max":[0.004231395502299,-0.005557634750841,-0.016],"min":[-0.006532088886238001,-0.01838505593971,-0.0165],"type":"VEC3"},{"bufferView":0,"byteOffset":3912,"componentType":5126,"count":48,"max":[0.013815768261606528,-0.0012,-0.014999999999999995],"min":[-0.006,-0.019513467273722889,-0.015000000000000003],"type":"VEC3"},{"bufferView":0,"byteOffset":4488,"componentType":5126,"count":46,"max":[0.012818147041487774,0.003,-0.018499999999999993],"min":[-0.005,-0.018516439875296475,-0.0185],"type":"VEC3"},{"bufferView":0,"byteOffset":5040,"componentType":5126,"count":24,"max":[-0.005,0.005,-0.0165],"min":[-0.007,0.003,-0.0185],"type":"VEC3"},{"bufferView":0,"byteOffset":5328,"componentType":5126,"count":16,"max":[0.007439802251536,0.0018000000000000002,-0.012],"min":[-0.006,-0.0012,-0.015],"type":"VEC3"},{"bufferView":0,"byteOffset":5520,"componentType":5126,"count":30,"max":[0.006146186082778,0.005000000000000001,0.017],"min":[-0.006,0.004999999999999999,-0.0165],"type":"VEC3"},{"bufferView":0,"byteOffset":5880,"componentType":5126,"count":26,"max":[-0.005,0.005,0.019],"min":[-0.007,0.003,0.017],"type":"VEC3"},{"bufferView":0,"byteOffset":6192,"componentType":5126,"count":30,"max":[0.006372358266478,0.0018000000000000013,0.0125],"min":[-0.006,0.0017999999999999989,-0.012],"type":"VEC3"},{"bufferView":0,"byteOffset":6552,"componentType":5126,"count":28,"max":[-0.005,-0.004272059531467999,0.019],"min":[-0.007,-0.005557634750841,0.017],"type":"VEC3"},{"bufferView":0,"byteOffset":6888,"componentType":5126,"count":46,"max":[0.012818147041487774,0.003,0.019000000000000008],"min":[-0.005,-0.018516439875296475,0.019],"type":"VEC3"},{"bufferView":0,"byteOffset":7440,"componentType":5126,"count":18,"max":[0.007439802251536,0.0018000000000000002,0.0155],"min":[-0.006,-0.0012,0.0125],"type":"VEC3"},{"bufferView":0,"byteOffset":7656,"componentType":5126,"count":32,"max":[-0.005766044443119,-0.004272059531468,0.0165],"min":[-0.007,-0.005557634750841,0.0155],"type":"VEC3"},{"bufferView":0,"byteOffset":8040,"componentType":5126,"count":4,"max":[0.004231395502299,-0.005557634750841,0.017],"min":[-0.006532088886238001,-0.01838505593971,0.0165],"type":"VEC3"},{"bufferView":0,"byteOffset":8088,"componentType":5126,"count":48,"max":[0.013815768261606555,-0.0012,0.015500000000000005],"min":[-0.006,-0.0195134672737227,0.015499999999999999],"type":"VEC3"},{"bufferView":0,"byteOffset":8664,"componentType":5126,"count":16,"max":[0.004997439945418,-0.004914847141154,-0.015],"min":[-0.006532088886238001,-0.01838505593971,-0.016],"type":"VEC3"},{"bufferView":0,"byteOffset":8856,"componentType":5126,"count":16,"max":[0.0057634843885370008,-0.004272059531468,-0.0165],"min":[-0.006532088886238001,-0.01838505593971,-0.0185],"type":"VEC3"},{"bufferView":0,"byteOffset":9048,"componentType":5126,"count":28,"max":[0.014813389481725281,-0.01092904165011,-0.015999999999999998],"min":[0.004231395502299,-0.020510494672149303,-0.0165],"type":"VEC3"},{"bufferView":0,"byteOffset":9384,"componentType":5126,"count":33,"max":[0.013628195605048,-0.000887033091661,-0.014999999999999995],"min":[0.007439802251536,-0.01152892308869,-0.016],"type":"VEC3"},{"bufferView":0,"byteOffset":9780,"componentType":5126,"count":112,"max":[0.014813389481725281,-0.01092904165011,-0.014999999999999998],"min":[0.004231395502299,-0.020510494672149303,-0.016],"type":"VEC3"},{"bufferView":0,"byteOffset":11124,"componentType":5126,"count":54,"max":[0.011977662161013002,-0.01140129732818113,-0.014999999999999998],"min":[0.005677662161013,-0.01765536323499887,-0.0185],"type":"VEC3"},{"bufferView":0,"byteOffset":11772,"componentType":5126,"count":16,"max":[0.006146186082778,0.005,-0.0165],"min":[-0.006,0.003,-0.0185],"type":"VEC3"},{"bufferView":0,"byteOffset":11964,"componentType":5126,"count":112,"max":[0.014813389481725281,-0.01092904165011,-0.016499999999999999],"min":[0.004231395502299,-0.020510494672149303,-0.0185],"type":"VEC3"},{"bufferView":0,"byteOffset":13308,"componentType":5126,"count":53,"max":[0.013628195605048,0.004168522463894,-0.016499999999999995],"min":[0.005312438783796,-0.01212880452727,-0.0185],"type":"VEC3"},{"bufferView":0,"byteOffset":13944,"componentType":5126,"count":41,"max":[0.00838956628238,0.003001855797227,-0.012],"min":[0.006372358266478,-0.0012,-0.016],"type":"VEC3"},{"bufferView":0,"byteOffset":14436,"componentType":5126,"count":16,"max":[0.006146186082778,0.005,0.019],"min":[-0.006,0.003,0.017],"type":"VEC3"},{"bufferView":0,"byteOffset":14628,"componentType":5126,"count":14,"max":[0.007131883896088001,0.005,0.017],"min":[0.006146186082778,0.004168522463894,-0.0165],"type":"VEC3"},{"bufferView":0,"byteOffset":14796,"componentType":5126,"count":54,"max":[0.0030499999999999999,0.005000000000000001,0.0000277620659990645],"min":[-0.0030500000000000008,0.0017999999999999989,-0.0060277620659990658],"type":"VEC3"},{"bufferView":0,"byteOffset":15444,"componentType":5126,"count":18,"max":[0.00737218707731928,0.003001855797227,0.012500000000000003],"min":[0.006372358266478,0.0018000000000000002,-0.012],"type":"VEC3"},{"bufferView":0,"byteOffset":15660,"componentType":5126,"count":16,"max":[0.0057634843885370008,-0.004272059531468,0.019],"min":[-0.006532088886238001,-0.01838505593971,0.017],"type":"VEC3"},{"bufferView":0,"byteOffset":15852,"componentType":5126,"count":112,"max":[0.014813389481725281,-0.01092904165011,0.019],"min":[0.004231395502299,-0.020510494672149303,0.017],"type":"VEC3"},{"bufferView":0,"byteOffset":17196,"componentType":5126,"count":51,"max":[0.013628195605048,0.004168522463894,0.019000000000000008],"min":[0.005312438783796,-0.01212880452727,0.017],"type":"VEC3"},{"bufferView":0,"byteOffset":17808,"componentType":5126,"count":54,"max":[0.011977662161013002,-0.01140129732818113,0.019],"min":[0.005677662161013,-0.01765536323499887,0.015499999999999999],"type":"VEC3"},{"bufferView":0,"byteOffset":18456,"componentType":5126,"count":46,"max":[0.00838956628238,0.003001855797227,0.0165],"min":[0.006372358266478,-0.0012,0.0125],"type":"VEC3"},{"bufferView":0,"byteOffset":19008,"componentType":5126,"count":16,"max":[0.004997439945418,-0.004914847141154,0.0165],"min":[-0.006532088886238001,-0.01838505593971,0.0155],"type":"VEC3"},{"bufferView":0,"byteOffset":19200,"componentType":5126,"count":28,"max":[0.014813389481725281,-0.01092904165011,0.017000000000000006],"min":[0.004231395502299,-0.020510494672149303,0.0165],"type":"VEC3"},{"bufferView":0,"byteOffset":19536,"componentType":5126,"count":32,"max":[0.013628195605048,-0.000887033091661,0.016500000000000009],"min":[0.007439802251536,-0.01152892308869,0.0155],"type":"VEC3"},{"bufferView":0,"byteOffset":19920,"componentType":5126,"count":112,"max":[0.014813389481725274,-0.01092904165011,0.016500000000000005],"min":[0.004231395502299,-0.020510494672149237,0.0155],"type":"VEC3"},{"bufferView":0,"byteOffset":21264,"componentType":5126,"count":35,"max":[0.013628195605048,0.004168522463894,0.017000000000000009],"min":[0.007131883896088001,-0.01092904165011,-0.0165],"type":"VEC3"},{"bufferView":0,"byteOffset":21684,"componentType":5126,"count":23,"max":[0.007131883896088001,0.005,-0.0165],"min":[0.005312438783796,0.003,-0.0185],"type":"VEC3"},{"bufferView":0,"byteOffset":21960,"componentType":5126,"count":25,"max":[0.007131883896088001,0.005,0.019],"min":[0.005312438783796,0.003,0.017],"type":"VEC3"},{"bufferView":1,"byteOffset":0,"componentType":5126,"count":22,"type":"VEC3"},{"bufferView":1,"byteOffset":264,"componentType":5126,"count":8,"type":"VEC3"},{"bufferView":1,"byteOffset":360,"componentType":5126,"count":16,"type":"VEC3"},{"bufferView":1,"byteOffset":552,"componentType":5126,"count":16,"type":"VEC3"},{"bufferView":1,"byteOffset":744,"componentType":5126,"count":64,"type":"VEC3"},{"bufferView":1,"byteOffset":1512,"componentType":5126,"count":16,"type":"VEC3"},{"bufferView":1,"byteOffset":1704,"componentType":5126,"count":16,"type":"VEC3"},{"bufferView":1,"byteOffset":1896,"componentType":5126,"count":16,"type":"VEC3"},{"bufferView":1,"byteOffset":2088,"componentType":5126,"count":64,"type":"VEC3"},{"bufferView":1,"byteOffset":2856,"componentType":5126,"count":8,"type":"VEC3"},{"bufferView":1,"byteOffset":2952,"componentType":5126,"count":16,"type":"VEC3"},{"bufferView":1,"byteOffset":3144,"componentType":5126,"count":32,"type":"VEC3"},{"bufferView":1,"byteOffset":3528,"componentType":5126,"count":28,"type":"VEC3"},{"bufferView":1,"byteOffset":3864,"componentType":5126,"count":4,"type":"VEC3"},{"bufferView":1,"byteOffset":3912,"componentType":5126,"count":48,"type":"VEC3"},{"bufferView":1,"byteOffset":4488,"componentType":5126,"count":46,"type":"VEC3"},{"bufferView":1,"byteOffset":5040,"componentType":5126,"count":24,"type":"VEC3"},{"bufferView":1,"byteOffset":5328,"componentType":5126,"count":16,"type":"VEC3"},{"bufferView":1,"byteOffset":5520,"componentType":5126,"count":30,"type":"VEC3"},{"bufferView":1,"byteOffset":5880,"componentType":5126,"count":26,"type":"VEC3"},{"bufferView":1,"byteOffset":6192,"componentType":5126,"count":30,"type":"VEC3"},{"bufferView":1,"byteOffset":6552,"componentType":5126,"count":28,"type":"VEC3"},{"bufferView":1,"byteOffset":6888,"componentType":5126,"count":46,"type":"VEC3"},{"bufferView":1,"byteOffset":7440,"componentType":5126,"count":18,"type":"VEC3"},{"bufferView":1,"byteOffset":7656,"componentType":5126,"count":32,"type":"VEC3"},{"bufferView":1,"byteOffset":8040,"componentType":5126,"count":4,"type":"VEC3"},{"bufferView":1,"byteOffset":8088,"componentType":5126,"count":48,"type":"VEC3"},{"bufferView":1,"byteOffset":8664,"componentType":5126,"count":16,"type":"VEC3"},{"bufferView":1,"byteOffset":8856,"componentType":5126,"count":16,"type":"VEC3"},{"bufferView":1,"byteOffset":9048,"componentType":5126,"count":28,"type":"VEC3"},{"bufferView":1,"byteOffset":9384,"componentType":5126,"count":33,"type":"VEC3"},{"bufferView":1,"byteOffset":9780,"componentType":5126,"count":112,"type":"VEC3"},{"bufferView":1,"byteOffset":11124,"componentType":5126,"count":54,"type":"VEC3"},{"bufferView":1,"byteOffset":11772,"componentType":5126,"count":16,"type":"VEC3"},{"bufferView":1,"byteOffset":11964,"componentType":5126,"count":112,"type":"VEC3"},{"bufferView":1,"byteOffset":13308,"componentType":5126,"count":53,"type":"VEC3"},{"bufferView":1,"byteOffset":13944,"componentType":5126,"count":41,"type":"VEC3"},{"bufferView":1,"byteOffset":14436,"componentType":5126,"count":16,"type":"VEC3"},{"bufferView":1,"byteOffset":14628,"componentType":5126,"count":14,"type":"VEC3"},{"bufferView":1,"byteOffset":14796,"componentType":5126,"count":54,"type":"VEC3"},{"bufferView":1,"byteOffset":15444,"componentType":5126,"count":18,"type":"VEC3"},{"bufferView":1,"byteOffset":15660,"componentType":5126,"count":16,"type":"VEC3"},{"bufferView":1,"byteOffset":15852,"componentType":5126,"count":112,"type":"VEC3"},{"bufferView":1,"byteOffset":17196,"componentType":5126,"count":51,"type":"VEC3"},{"bufferView":1,"byteOffset":17808,"componentType":5126,"count":54,"type":"VEC3"},{"bufferView":1,"byteOffset":18456,"componentType":5126,"count":46,"type":"VEC3"},{"bufferView":1,"byteOffset":19008,"componentType":5126,"count":16,"type":"VEC3"},{"bufferView":1,"byteOffset":19200,"componentType":5126,"count":28,"type":"VEC3"},{"bufferView":1,"byteOffset":19536,"componentType":5126,"count":32,"type":"VEC3"},{"bufferView":1,"byteOffset":19920,"componentType":5126,"count":112,"type":"VEC3"},{"bufferView":1,"byteOffset":21264,"componentType":5126,"count":35,"type":"VEC3"},{"bufferView":1,"byteOffset":21684,"componentType":5126,"count":23,"type":"VEC3"},{"bufferView":1,"byteOffset":21960,"componentType":5126,"count":25,"type":"VEC3"},{"bufferView":2,"byteOffset":0,"componentType":5123,"count":60,"type":"SCALAR"},{"bufferView":2,"byteOffset":120,"componentType":5123,"count":18,"type":"SCALAR"},{"bufferView":2,"byteOffset":156,"componentType":5123,"count":42,"type":"SCALAR"},{"bufferView":2,"byteOffset":240,"componentType":5123,"count":42,"type":"SCALAR"},{"bufferView":2,"byteOffset":324,"componentType":5123,"count":294,"type":"SCALAR"},{"bufferView":2,"byteOffset":912,"componentType":5123,"count":42,"type":"SCALAR"},{"bufferView":2,"byteOffset":996,"componentType":5123,"count":42,"type":"SCALAR"},{"bufferView":2,"byteOffset":1080,"componentType":5123,"count":42,"type":"SCALAR"},{"bufferView":2,"byteOffset":1164,"componentType":5123,"count":294,"type":"SCALAR"},{"bufferView":2,"byteOffset":1752,"componentType":5123,"count":18,"type":"SCALAR"},{"bufferView":2,"byteOffset":1788,"componentType":5123,"count":42,"type":"SCALAR"},{"bufferView":2,"byteOffset":1872,"componentType":5123,"count":126,"type":"SCALAR"},{"bufferView":2,"byteOffset":2124,"componentType":5123,"count":108,"type":"SCALAR"},{"bufferView":2,"byteOffset":2340,"componentType":5123,"count":6,"type":"SCALAR"},{"bufferView":2,"byteOffset":2352,"componentType":5123,"count":144,"type":"SCALAR"},{"bufferView":2,"byteOffset":2640,"componentType":5123,"count":138,"type":"SCALAR"},{"bufferView":2,"byteOffset":2916,"componentType":5123,"count":72,"type":"SCALAR"},{"bufferView":2,"byteOffset":3060,"componentType":5123,"count":42,"type":"SCALAR"},{"bufferView":2,"byteOffset":3144,"componentType":5123,"count":90,"type":"SCALAR"},{"bufferView":2,"byteOffset":3324,"componentType":5123,"count":84,"type":"SCALAR"},{"bufferView":2,"byteOffset":3492,"componentType":5123,"count":90,"type":"SCALAR"},{"bufferView":2,"byteOffset":3672,"componentType":5123,"count":108,"type":"SCALAR"},{"bufferView":2,"byteOffset":3888,"componentType":5123,"count":138,"type":"SCALAR"},{"bufferView":2,"byteOffset":4164,"componentType":5123,"count":48,"type":"SCALAR"},{"bufferView":2,"byteOffset":4260,"componentType":5123,"count":126,"type":"SCALAR"},{"bufferView":2,"byteOffset":4512,"componentType":5123,"count":6,"type":"SCALAR"},{"bufferView":2,"byteOffset":4524,"componentType":5123,"count":144,"type":"SCALAR"},{"bufferView":2,"byteOffset":4812,"componentType":5123,"count":42,"type":"SCALAR"},{"bufferView":2,"byteOffset":4896,"componentType":5123,"count":42,"type":"SCALAR"},{"bufferView":2,"byteOffset":4980,"componentType":5123,"count":78,"type":"SCALAR"},{"bufferView":2,"byteOffset":5136,"componentType":5123,"count":129,"type":"SCALAR"},{"bufferView":2,"byteOffset":5396,"componentType":5123,"count":546,"type":"SCALAR"},{"bufferView":2,"byteOffset":6488,"componentType":5123,"count":156,"type":"SCALAR"},{"bufferView":2,"byteOffset":6800,"componentType":5123,"count":42,"type":"SCALAR"},{"bufferView":2,"byteOffset":6884,"componentType":5123,"count":546,"type":"SCALAR"},{"bufferView":2,"byteOffset":7976,"componentType":5123,"count":246,"type":"SCALAR"},{"bufferView":2,"byteOffset":8468,"componentType":5123,"count":147,"type":"SCALAR"},{"bufferView":2,"byteOffset":8764,"componentType":5123,"count":42,"type":"SCALAR"},{"bufferView":2,"byteOffset":8848,"componentType":5123,"count":36,"type":"SCALAR"},{"bufferView":2,"byteOffset":8920,"componentType":5123,"count":156,"type":"SCALAR"},{"bufferView":2,"byteOffset":9232,"componentType":5123,"count":48,"type":"SCALAR"},{"bufferView":2,"byteOffset":9328,"componentType":5123,"count":42,"type":"SCALAR"},{"bufferView":2,"byteOffset":9412,"componentType":5123,"count":546,"type":"SCALAR"},{"bufferView":2,"byteOffset":10504,"componentType":5123,"count":234,"type":"SCALAR"},{"bufferView":2,"byteOffset":10972,"componentType":5123,"count":156,"type":"SCALAR"},{"bufferView":2,"byteOffset":11284,"componentType":5123,"count":171,"type":"SCALAR"},{"bufferView":2,"byteOffset":11628,"componentType":5123,"count":42,"type":"SCALAR"},{"bufferView":2,"byteOffset":11712,"componentType":5123,"count":78,"type":"SCALAR"},{"bufferView":2,"byteOffset":11868,"componentType":5123,"count":126,"type":"SCALAR"},{"bufferView":2,"byteOffset":12120,"componentType":5123,"count":546,"type":"SCALAR"},{"bufferView":2,"byteOffset":13212,"componentType":5123,"count":99,"type":"SCALAR"},{"bufferView":2,"byteOffset":13412,"componentType":5123,"count":69,"type":"SCALAR"},{"bufferView":2,"byteOffset":13552,"componentType":5123,"count":81,"type":"SCALAR"}],"asset":{"generator":"Open CASCADE Technology 7.6 [dev.opencascade.org]","version":"2.0"},"bufferViews":[{"buffer":0,"byteLength":22260,"byteOffset":0,"byteStride":12,"target":34962},{"buffer":0,"byteLength":22260,"byteOffset":22260,"byteStride":12,"target":34962},{"buffer":0,"byteLength":13716,"byteOffset":44520,"target":34963}],"buffers":[{"byteLength":58236,"uri":"SHD.bin"}],"materials":[{"name":"mat_0","pbrMetallicRoughness":{"baseColorFactor":[0.22696590423583985,0.22696590423583985,0.22696590423583985,1.0]},"doubleSided":true}],"meshes":[{"name":"Body","primitives":[{"attributes":{"NORMAL":53,"POSITION":0},"indices":106,"material":0,"mode":4},{"attributes":{"NORMAL":54,"POSITION":1},"indices":107,"material":0,"mode":4},{"attributes":{"NORMAL":55,"POSITION":2},"indices":108,"material":0,"mode":4},{"attributes":{"NORMAL":56,"POSITION":3},"indices":109,"material":0,"mode":4},{"attributes":{"NORMAL":57,"POSITION":4},"indices":110,"material":0,"mode":4},{"attributes":{"NORMAL":58,"POSITION":5},"indices":111,"material":0,"mode":4},{"attributes":{"NORMAL":59,"POSITION":6},"indices":112,"material":0,"mode":4},{"attributes":{"NORMAL":60,"POSITION":7},"indices":113,"material":0,"mode":4},{"attributes":{"NORMAL":61,"POSITION":8},"indices":114,"material":0,"mode":4},{"attributes":{"NORMAL":62,"POSITION":9},"indices":115,"material":0,"mode":4},{"attributes":{"NORMAL":63,"POSITION":10},"indices":116,"material":0,"mode":4},{"attributes":{"NORMAL":64,"POSITION":11},"indices":117,"material":0,"mode":4},{"attributes":{"NORMAL":65,"POSITION":12},"indices":118,"material":0,"mode":4},{"attributes":{"NORMAL":66,"POSITION":13},"indices":119,"material":0,"mode":4},{"attributes":{"NORMAL":67,"POSITION":14},"indices":120,"material":0,"mode":4},{"attributes":{"NORMAL":68,"POSITION":15},"indices":121,"material":0,"mode":4},{"attributes":{"NORMAL":69,"POSITION":16},"indices":122,"material":0,"mode":4},{"attributes":{"NORMAL":70,"POSITION":17},"indices":123,"material":0,"mode":4},{"attributes":{"NORMAL":71,"POSITION":18},"indices":124,"material":0,"mode":4},{"attributes":{"NORMAL":72,"POSITION":19},"indices":125,"material":0,"mode":4},{"attributes":{"NORMAL":73,"POSITION":20},"indices":126,"material":0,"mode":4},{"attributes":{"NORMAL":74,"POSITION":21},"indices":127,"material":0,"mode":4},{"attributes":{"NORMAL":75,"POSITION":22},"indices":128,"material":0,"mode":4},{"attributes":{"NORMAL":76,"POSITION":23},"indices":129,"material":0,"mode":4},{"attributes":{"NORMAL":77,"POSITION":24},"indices":130,"material":0,"mode":4},{"attributes":{"NORMAL":78,"POSITION":25},"indices":131,"material":0,"mode":4},{"attributes":{"NORMAL":79,"POSITION":26},"indices":132,"material":0,"mode":4},{"attributes":{"NORMAL":80,"POSITION":27},"indices":133,"material":0,"mode":4},{"attributes":{"NORMAL":81,"POSITION":28},"indices":134,"material":0,"mode":4},{"attributes":{"NORMAL":82,"POSITION":29},"indices":135,"material":0,"mode":4},{"attributes":{"NORMAL":83,"POSITION":30},"indices":136,"material":0,"mode":4},{"attributes":{"NORMAL":84,"POSITION":31},"indices":137,"material":0,"mode":4},{"attributes":{"NORMAL":85,"POSITION":32},"indices":138,"material":0,"mode":4},{"attributes":{"NORMAL":86,"POSITION":33},"indices":139,"material":0,"mode":4},{"attributes":{"NORMAL":87,"POSITION":34},"indices":140,"material":0,"mode":4},{"attributes":{"NORMAL":88,"POSITION":35},"indices":141,"material":0,"mode":4},{"attributes":{"NORMAL":89,"POSITION":36},"indices":142,"material":0,"mode":4},{"attributes":{"NORMAL":90,"POSITION":37},"indices":143,"material":0,"mode":4},{"attributes":{"NORMAL":91,"POSITION":38},"indices":144,"material":0,"mode":4},{"attributes":{"NORMAL":92,"POSITION":39},"indices":145,"material":0,"mode":4},{"attributes":{"NORMAL":93,"POSITION":40},"indices":146,"material":0,"mode":4},{"attributes":{"NORMAL":94,"POSITION":41},"indices":147,"material":0,"mode":4},{"attributes":{"NORMAL":95,"POSITION":42},"indices":148,"material":0,"mode":4},{"attributes":{"NORMAL":96,"POSITION":43},"indices":149,"material":0,"mode":4},{"attributes":{"NORMAL":97,"POSITION":44},"indices":150,"material":0,"mode":4},{"attributes":{"NORMAL":98,"POSITION":45},"indices":151,"material":0,"mode":4},{"attributes":{"NORMAL":99,"POSITION":46},"indices":152,"material":0,"mode":4},{"attributes":{"NORMAL":100,"POSITION":47},"indices":153,"material":0,"mode":4},{"attributes":{"NORMAL":101,"POSITION":48},"indices":154,"material":0,"mode":4},{"attributes":{"NORMAL":102,"POSITION":49},"indices":155,"material":0,"mode":4},{"attributes":{"NORMAL":103,"POSITION":50},"indices":156,"material":0,"mode":4},{"attributes":{"NORMAL":104,"POSITION":51},"indices":157,"material":0,"mode":4},{"attributes":{"NORMAL":105,"POSITION":52},"indices":158,"material":0,"mode":4}]}],"nodes":[{"children":[1,2],"name":"Model"},{"name":"LCS_Origin"},{"children":[3,4],"rotation":[0.7071067811865476,-0.7071067811865475,1.1102230246251569e-16,-2.0879164262840902e-16],"translation":[0.005000000000000001,6.913336342343749e-19,-0.0029999999999999985],"name":"shd001"},{"mesh":0,"name":"Body"},{"rotation":[0.7071067811865476,1.9553868033178673e-16,0.7071067811865475,3.997518847074628e-17],"translation":[-8.881784197001253e-19,0.005,-0.003],"name":"LCS_shd_1"}],"scene":0,"scenes":[{"nodes":[0]}]}