{"accessors":[{"bufferView":0,"byteOffset":0,"componentType":5126,"count":8,"max":[-0.008,0.0017,0.017],"min":[-0.008,-5.495603971895e-18,-0.0165],"type":"VEC3"},{"bufferView":0,"byteOffset":96,"componentType":5126,"count":10,"max":[-0.000746295781475,-4.2852666558399999e-18,-0.012866083542949],"min":[-0.008,-0.01807301234189,-0.0165],"type":"VEC3"},{"bufferView":0,"byteOffset":216,"componentType":5126,"count":13,"max":[-0.007119130266468,-4.02006841777e-18,-0.012],"min":[-0.008,-0.0005715949473039999,-0.012866083542949],"type":"VEC3"},{"bufferView":0,"byteOffset":372,"componentType":5126,"count":16,"max":[-0.006,0.0017,-0.0165],"min":[-0.008,-5.495603971895e-18,-0.0185],"type":"VEC3"},{"bufferView":0,"byteOffset":564,"componentType":5126,"count":13,"max":[-0.0071642775883700008,4.186601871464e-18,0.01256985241884],"min":[-0.008,-0.0005,-0.012069852418849002],"type":"VEC3"},{"bufferView":0,"byteOffset":720,"componentType":5126,"count":16,"max":[-0.007,0.0027,0.017],"min":[-0.008,0.0017,-0.0165],"type":"VEC3"},{"bufferView":0,"byteOffset":912,"componentType":5126,"count":13,"max":[-0.007119130266468,4.4518001095330008e-18,0.013366083542940001],"min":[-0.008,-0.0005715949473039999,0.0125],"type":"VEC3"},{"bufferView":0,"byteOffset":1068,"componentType":5126,"count":16,"max":[-0.006,0.0017,0.019],"min":[-0.008,5.662137425588001e-18,0.017],"type":"VEC3"},{"bufferView":0,"byteOffset":1260,"componentType":5126,"count":12,"max":[-0.000746295781475,5.662137425588001e-18,0.017],"min":[-0.008,-0.01807301234189,0.013366083542940001],"type":"VEC3"},{"bufferView":0,"byteOffset":1404,"componentType":5126,"count":32,"max":[-0.005571595209253,-4.2852666558399999e-18,-0.012651493551269],"min":[-0.008,-0.003853851183998,-0.01595],"type":"VEC3"},{"bufferView":0,"byteOffset":1788,"componentType":5126,"count":16,"max":[0.001109788727518,0.000386376314788,-0.0165],"min":[-0.008,-0.01807301234189,-0.0185],"type":"VEC3"},{"bufferView":0,"byteOffset":1980,"componentType":5126,"count":16,"max":[0.000135344360296,-0.0035,-0.015],"min":[-0.006453235351025,-0.01807301234189,-0.01595],"type":"VEC3"},{"bufferView":0,"byteOffset":2172,"componentType":5126,"count":30,"max":[0.012748820591362035,-0.01222452563605,-0.01595],"min":[-0.000746295781475,-0.022462213657873,-0.0165],"type":"VEC3"},{"bufferView":0,"byteOffset":2532,"componentType":5126,"count":17,"max":[0.007813591992613,-0.0005,-0.012],"min":[-0.0071642775883710009,-0.0035,-0.015],"type":"VEC3"},{"bufferView":0,"byteOffset":2736,"componentType":5126,"count":47,"max":[0.010749157565258599,0.0007,-0.018499999999999997],"min":[-0.006,-0.020463206277972116,-0.0185],"type":"VEC3"},{"bufferView":0,"byteOffset":3300,"componentType":5126,"count":26,"max":[-0.006,0.0027,-0.0165],"min":[-0.008,0.0007,-0.0185],"type":"VEC3"},{"bufferView":0,"byteOffset":3612,"componentType":5126,"count":30,"max":[0.007200394771923001,-0.0004999999999999988,0.0125],"min":[-0.0071642775883710009,-0.0005000000000000012,-0.012],"type":"VEC3"},{"bufferView":0,"byteOffset":3972,"componentType":5126,"count":30,"max":[0.007048893529957,0.0027000000000000016,0.017],"min":[-0.007,0.002699999999999999,-0.0165],"type":"VEC3"},{"bufferView":0,"byteOffset":4332,"componentType":5126,"count":26,"max":[-0.006,0.0027,0.019],"min":[-0.008,0.0007,0.017],"type":"VEC3"},{"bufferView":0,"byteOffset":4644,"componentType":5126,"count":19,"max":[0.007813591992613,-0.0005,0.0155],"min":[-0.0071642775883700008,-0.0035,0.0125],"type":"VEC3"},{"bufferView":0,"byteOffset":4872,"componentType":5126,"count":36,"max":[-0.005571595209253,4.4518001095330008e-18,0.01645],"min":[-0.008,-0.003853851183998,0.01315149355126],"type":"VEC3"},{"bufferView":0,"byteOffset":5304,"componentType":5126,"count":16,"max":[0.001109788727518,0.000386376314788,0.019],"min":[-0.008,-0.01807301234189,0.017],"type":"VEC3"},{"bufferView":0,"byteOffset":5496,"componentType":5126,"count":47,"max":[0.010749157565258599,0.0007,0.019000000000000004],"min":[-0.006,-0.020463206277972116,0.019],"type":"VEC3"},{"bufferView":0,"byteOffset":6060,"componentType":5126,"count":16,"max":[0.000135344360296,-0.0035,0.01645],"min":[-0.006453235351025,-0.01807301234189,0.0155],"type":"VEC3"},{"bufferView":0,"byteOffset":6252,"componentType":5126,"count":30,"max":[0.012748820591362037,-0.01222452563605,0.017000000000000006],"min":[-0.000746295781475,-0.022462213657873,0.01645],"type":"VEC3"},{"bufferView":0,"byteOffset":6612,"componentType":5126,"count":120,"max":[0.012748820591362035,-0.01222452563605,-0.016499999999999999],"min":[-0.000746295781475,-0.022462213657873,-0.0185],"type":"VEC3"},{"bufferView":0,"byteOffset":8052,"componentType":5126,"count":120,"max":[0.012748820591362035,-0.01222452563605,-0.014999999999999998],"min":[-0.000746295781475,-0.022462213657873,-0.01595],"type":"VEC3"},{"bufferView":0,"byteOffset":9492,"componentType":5126,"count":45,"max":[0.011798980653962907,-0.0035,-0.014999999999999995],"min":[-0.005571595209253,-0.021512685152420054,-0.015000000000000003],"type":"VEC3"},{"bufferView":0,"byteOffset":10032,"componentType":5126,"count":34,"max":[0.011954423232183,0.0017633690368,0.017000000000000006],"min":[0.008046883692822,-0.01222452563605,-0.0165],"type":"VEC3"},{"bufferView":0,"byteOffset":10440,"componentType":5126,"count":33,"max":[0.008742793662444999,0.000543316302046,-0.012],"min":[0.007200394771923001,-0.0035,-0.01595],"type":"VEC3"},{"bufferView":0,"byteOffset":10836,"componentType":5126,"count":16,"max":[0.007048893529957,0.0027,-0.0165],"min":[-0.007,0.0007,-0.0185],"type":"VEC3"},{"bufferView":0,"byteOffset":11028,"componentType":5126,"count":50,"max":[0.011954423232183,0.0017633690368,-0.016499999999999999],"min":[0.006122324347629,-0.01315057197667,-0.0185],"type":"VEC3"},{"bufferView":0,"byteOffset":11628,"componentType":5126,"count":54,"max":[0.0089,-0.01233865487481113,-0.014999999999999998],"min":[0.0026000000000000005,-0.01859272078162887,-0.0185],"type":"VEC3"},{"bufferView":0,"byteOffset":12276,"componentType":5126,"count":17,"max":[0.008145800540771,0.000543316302046,0.0125],"min":[0.007200394771923001,-0.0005,-0.012],"type":"VEC3"},{"bufferView":0,"byteOffset":12480,"componentType":5126,"count":54,"max":[0.0030499999999999999,0.0027000000000000016,-0.0022222379340009355],"min":[-0.00305,-0.0005000000000000012,-0.008277762065999065],"type":"VEC3"},{"bufferView":0,"byteOffset":13128,"componentType":5126,"count":16,"max":[0.007048893529957,0.0027,0.019],"min":[-0.007,0.0007,0.017],"type":"VEC3"},{"bufferView":0,"byteOffset":13320,"componentType":5126,"count":16,"max":[0.008046883692822,0.0027,0.017],"min":[0.007048893529957,0.0017633690368,-0.0165],"type":"VEC3"},{"bufferView":0,"byteOffset":13512,"componentType":5126,"count":35,"max":[0.008742793662444999,0.000543316302046,0.01645],"min":[0.007200394771923001,-0.0035,0.012499999999999999],"type":"VEC3"},{"bufferView":0,"byteOffset":13932,"componentType":5126,"count":45,"max":[0.01179898065396284,-0.0035,0.015500000000000005],"min":[-0.005571595209253,-0.021512685152420127,0.015499999999999999],"type":"VEC3"},{"bufferView":0,"byteOffset":14472,"componentType":5126,"count":120,"max":[0.012748820591362035,-0.01222452563605,0.019],"min":[-0.000746295781475,-0.022462213657873,0.017],"type":"VEC3"},{"bufferView":0,"byteOffset":15912,"componentType":5126,"count":53,"max":[0.011954423232183,0.0017633690368,0.019000000000000004],"min":[0.006122324347629,-0.01315057197667,0.017],"type":"VEC3"},{"bufferView":0,"byteOffset":16548,"componentType":5126,"count":54,"max":[0.0089,-0.01233865487481113,0.019],"min":[0.0026000000000000005,-0.01859272078162887,0.015499999999999999],"type":"VEC3"},{"bufferView":0,"byteOffset":17196,"componentType":5126,"count":120,"max":[0.012748820591362037,-0.01222452563605,0.016450000000000004],"min":[-0.000746295781475,-0.022462213657872988,0.0155],"type":"VEC3"},{"bufferView":0,"byteOffset":18636,"componentType":5126,"count":33,"max":[0.011954423232183,-0.003302302613114,-0.014999999999999995],"min":[0.007813591992613,-0.01266439764784,-0.01595],"type":"VEC3"},{"bufferView":0,"byteOffset":19032,"componentType":5126,"count":32,"max":[0.011954423232182,-0.003302302613114,0.016450000000000004],"min":[0.007813591992613,-0.01266439764784,0.0155],"type":"VEC3"},{"bufferView":0,"byteOffset":19416,"componentType":5126,"count":26,"max":[0.008046883692822,0.0027,-0.0165],"min":[0.006122324347629,0.0007,-0.0185],"type":"VEC3"},{"bufferView":0,"byteOffset":19728,"componentType":5126,"count":26,"max":[0.008046883692822,0.0027,0.019],"min":[0.006122324347629,0.0007,0.01699999999999547],"type":"VEC3"},{"bufferView":1,"byteOffset":0,"componentType":5126,"count":8,"type":"VEC3"},{"bufferView":1,"byteOffset":96,"componentType":5126,"count":10,"type":"VEC3"},{"bufferView":1,"byteOffset":216,"componentType":5126,"count":13,"type":"VEC3"},{"bufferView":1,"byteOffset":372,"componentType":5126,"count":16,"type":"VEC3"},{"bufferView":1,"byteOffset":564,"componentType":5126,"count":13,"type":"VEC3"},{"bufferView":1,"byteOffset":720,"componentType":5126,"count":16,"type":"VEC3"},{"bufferView":1,"byteOffset":912,"componentType":5126,"count":13,"type":"VEC3"},{"bufferView":1,"byteOffset":1068,"componentType":5126,"count":16,"type":"VEC3"},{"bufferView":1,"byteOffset":1260,"componentType":5126,"count":12,"type":"VEC3"},{"bufferView":1,"byteOffset":1404,"componentType":5126,"count":32,"type":"VEC3"},{"bufferView":1,"byteOffset":1788,"componentType":5126,"count":16,"type":"VEC3"},{"bufferView":1,"byteOffset":1980,"componentType":5126,"count":16,"type":"VEC3"},{"bufferView":1,"byteOffset":2172,"componentType":5126,"count":30,"type":"VEC3"},{"bufferView":1,"byteOffset":2532,"componentType":5126,"count":17,"type":"VEC3"},{"bufferView":1,"byteOffset":2736,"componentType":5126,"count":47,"type":"VEC3"},{"bufferView":1,"byteOffset":3300,"componentType":5126,"count":26,"type":"VEC3"},{"bufferView":1,"byteOffset":3612,"componentType":5126,"count":30,"type":"VEC3"},{"bufferView":1,"byteOffset":3972,"componentType":5126,"count":30,"type":"VEC3"},{"bufferView":1,"byteOffset":4332,"componentType":5126,"count":26,"type":"VEC3"},{"bufferView":1,"byteOffset":4644,"componentType":5126,"count":19,"type":"VEC3"},{"bufferView":1,"byteOffset":4872,"componentType":5126,"count":36,"type":"VEC3"},{"bufferView":1,"byteOffset":5304,"componentType":5126,"count":16,"type":"VEC3"},{"bufferView":1,"byteOffset":5496,"componentType":5126,"count":47,"type":"VEC3"},{"bufferView":1,"byteOffset":6060,"componentType":5126,"count":16,"type":"VEC3"},{"bufferView":1,"byteOffset":6252,"componentType":5126,"count":30,"type":"VEC3"},{"bufferView":1,"byteOffset":6612,"componentType":5126,"count":120,"type":"VEC3"},{"bufferView":1,"byteOffset":8052,"componentType":5126,"count":120,"type":"VEC3"},{"bufferView":1,"byteOffset":9492,"componentType":5126,"count":45,"type":"VEC3"},{"bufferView":1,"byteOffset":10032,"componentType":5126,"count":34,"type":"VEC3"},{"bufferView":1,"byteOffset":10440,"componentType":5126,"count":33,"type":"VEC3"},{"bufferView":1,"byteOffset":10836,"componentType":5126,"count":16,"type":"VEC3"},{"bufferView":1,"byteOffset":11028,"componentType":5126,"count":50,"type":"VEC3"},{"bufferView":1,"byteOffset":11628,"componentType":5126,"count":54,"type":"VEC3"},{"bufferView":1,"byteOffset":12276,"componentType":5126,"count":17,"type":"VEC3"},{"bufferView":1,"byteOffset":12480,"componentType":5126,"count":54,"type":"VEC3"},{"bufferView":1,"byteOffset":13128,"componentType":5126,"count":16,"type":"VEC3"},{"bufferView":1,"byteOffset":13320,"componentType":5126,"count":16,"type":"VEC3"},{"bufferView":1,"byteOffset":13512,"componentType":5126,"count":35,"type":"VEC3"},{"bufferView":1,"byteOffset":13932,"componentType":5126,"count":45,"type":"VEC3"},{"bufferView":1,"byteOffset":14472,"componentType":5126,"count":120,"type":"VEC3"},{"bufferView":1,"byteOffset":15912,"componentType":5126,"count":53,"type":"VEC3"},{"bufferView":1,"byteOffset":16548,"componentType":5126,"count":54,"type":"VEC3"},{"bufferView":1,"byteOffset":17196,"componentType":5126,"count":120,"type":"VEC3"},{"bufferView":1,"byteOffset":18636,"componentType":5126,"count":33,"type":"VEC3"},{"bufferView":1,"byteOffset":19032,"componentType":5126,"count":32,"type":"VEC3"},{"bufferView":1,"byteOffset":19416,"componentType":5126,"count":26,"type":"VEC3"},{"bufferView":1,"byteOffset":19728,"componentType":5126,"count":26,"type":"VEC3"},{"bufferView":2,"byteOffset":0,"componentType":5123,"count":18,"type":"SCALAR"},{"bufferView":2,"byteOffset":36,"componentType":5123,"count":24,"type":"SCALAR"},{"bufferView":2,"byteOffset":84,"componentType":5123,"count":33,"type":"SCALAR"},{"bufferView":2,"byteOffset":152,"componentType":5123,"count":42,"type":"SCALAR"},{"bufferView":2,"byteOffset":236,"componentType":5123,"count":36,"type":"SCALAR"},{"bufferView":2,"byteOffset":308,"componentType":5123,"count":42,"type":"SCALAR"},{"bufferView":2,"byteOffset":392,"componentType":5123,"count":33,"type":"SCALAR"},{"bufferView":2,"byteOffset":460,"componentType":5123,"count":42,"type":"SCALAR"},{"bufferView":2,"byteOffset":544,"componentType":5123,"count":30,"type":"SCALAR"},{"bufferView":2,"byteOffset":604,"componentType":5123,"count":108,"type":"SCALAR"},{"bufferView":2,"byteOffset":820,"componentType":5123,"count":42,"type":"SCALAR"},{"bufferView":2,"byteOffset":904,"componentType":5123,"count":42,"type":"SCALAR"},{"bufferView":2,"byteOffset":988,"componentType":5123,"count":84,"type":"SCALAR"},{"bufferView":2,"byteOffset":1156,"componentType":5123,"count":45,"type":"SCALAR"},{"bufferView":2,"byteOffset":1248,"componentType":5123,"count":141,"type":"SCALAR"},{"bufferView":2,"byteOffset":1532,"componentType":5123,"count":84,"type":"SCALAR"},{"bufferView":2,"byteOffset":1700,"componentType":5123,"count":90,"type":"SCALAR"},{"bufferView":2,"byteOffset":1880,"componentType":5123,"count":90,"type":"SCALAR"},{"bufferView":2,"byteOffset":2060,"componentType":5123,"count":84,"type":"SCALAR"},{"bufferView":2,"byteOffset":2228,"componentType":5123,"count":51,"type":"SCALAR"},{"bufferView":2,"byteOffset":2332,"componentType":5123,"count":126,"type":"SCALAR"},{"bufferView":2,"byteOffset":2584,"componentType":5123,"count":42,"type":"SCALAR"},{"bufferView":2,"byteOffset":2668,"componentType":5123,"count":141,"type":"SCALAR"},{"bufferView":2,"byteOffset":2952,"componentType":5123,"count":42,"type":"SCALAR"},{"bufferView":2,"byteOffset":3036,"componentType":5123,"count":84,"type":"SCALAR"},{"bufferView":2,"byteOffset":3204,"componentType":5123,"count":588,"type":"SCALAR"},{"bufferView":2,"byteOffset":4380,"componentType":5123,"count":588,"type":"SCALAR"},{"bufferView":2,"byteOffset":5556,"componentType":5123,"count":135,"type":"SCALAR"},{"bufferView":2,"byteOffset":5828,"componentType":5123,"count":96,"type":"SCALAR"},{"bufferView":2,"byteOffset":6020,"componentType":5123,"count":102,"type":"SCALAR"},{"bufferView":2,"byteOffset":6224,"componentType":5123,"count":42,"type":"SCALAR"},{"bufferView":2,"byteOffset":6308,"componentType":5123,"count":228,"type":"SCALAR"},{"bufferView":2,"byteOffset":6764,"componentType":5123,"count":156,"type":"SCALAR"},{"bufferView":2,"byteOffset":7076,"componentType":5123,"count":45,"type":"SCALAR"},{"bufferView":2,"byteOffset":7168,"componentType":5123,"count":156,"type":"SCALAR"},{"bufferView":2,"byteOffset":7480,"componentType":5123,"count":42,"type":"SCALAR"},{"bufferView":2,"byteOffset":7564,"componentType":5123,"count":42,"type":"SCALAR"},{"bufferView":2,"byteOffset":7648,"componentType":5123,"count":108,"type":"SCALAR"},{"bufferView":2,"byteOffset":7864,"componentType":5123,"count":135,"type":"SCALAR"},{"bufferView":2,"byteOffset":8136,"componentType":5123,"count":588,"type":"SCALAR"},{"bufferView":2,"byteOffset":9312,"componentType":5123,"count":246,"type":"SCALAR"},{"bufferView":2,"byteOffset":9804,"componentType":5123,"count":156,"type":"SCALAR"},{"bufferView":2,"byteOffset":10116,"componentType":5123,"count":588,"type":"SCALAR"},{"bufferView":2,"byteOffset":11292,"componentType":5123,"count":129,"type":"SCALAR"},{"bufferView":2,"byteOffset":11552,"componentType":5123,"count":126,"type":"SCALAR"},{"bufferView":2,"byteOffset":11804,"componentType":5123,"count":84,"type":"SCALAR"},{"bufferView":2,"byteOffset":11972,"componentType":5123,"count":84,"type":"SCALAR"}],"asset":{"generator":"Open CASCADE Technology 7.6 [dev.opencascade.org]","version":"2.0"},"bufferViews":[{"buffer":0,"byteLength":20040,"byteOffset":0,"byteStride":12,"target":34962},{"buffer":0,"byteLength":20040,"byteOffset":20040,"byteStride":12,"target":34962},{"buffer":0,"byteLength":12140,"byteOffset":40080,"target":34963}],"buffers":[{"byteLength":52220,"uri":"THT.bin"}],"materials":[{"name":"mat_0","pbrMetallicRoughness":{"baseColorFactor":[0.22696590423583985,0.22696590423583985,0.22696590423583985,1.0]},"doubleSided":true}],"meshes":[{"name":"Body","primitives":[{"attributes":{"NORMAL":47,"POSITION":0},"indices":94,"material":0,"mode":4},{"attributes":{"NORMAL":48,"POSITION":1},"indices":95,"material":0,"mode":4},{"attributes":{"NORMAL":49,"POSITION":2},"indices":96,"material":0,"mode":4},{"attributes":{"NORMAL":50,"POSITION":3},"indices":97,"material":0,"mode":4},{"attributes":{"NORMAL":51,"POSITION":4},"indices":98,"material":0,"mode":4},{"attributes":{"NORMAL":52,"POSITION":5},"indices":99,"material":0,"mode":4},{"attributes":{"NORMAL":53,"POSITION":6},"indices":100,"material":0,"mode":4},{"attributes":{"NORMAL":54,"POSITION":7},"indices":101,"material":0,"mode":4},{"attributes":{"NORMAL":55,"POSITION":8},"indices":102,"material":0,"mode":4},{"attributes":{"NORMAL":56,"POSITION":9},"indices":103,"material":0,"mode":4},{"attributes":{"NORMAL":57,"POSITION":10},"indices":104,"material":0,"mode":4},{"attributes":{"NORMAL":58,"POSITION":11},"indices":105,"material":0,"mode":4},{"attributes":{"NORMAL":59,"POSITION":12},"indices":106,"material":0,"mode":4},{"attributes":{"NORMAL":60,"POSITION":13},"indices":107,"material":0,"mode":4},{"attributes":{"NORMAL":61,"POSITION":14},"indices":108,"material":0,"mode":4},{"attributes":{"NORMAL":62,"POSITION":15},"indices":109,"material":0,"mode":4},{"attributes":{"NORMAL":63,"POSITION":16},"indices":110,"material":0,"mode":4},{"attributes":{"NORMAL":64,"POSITION":17},"indices":111,"material":0,"mode":4},{"attributes":{"NORMAL":65,"POSITION":18},"indices":112,"material":0,"mode":4},{"attributes":{"NORMAL":66,"POSITION":19},"indices":113,"material":0,"mode":4},{"attributes":{"NORMAL":67,"POSITION":20},"indices":114,"material":0,"mode":4},{"attributes":{"NORMAL":68,"POSITION":21},"indices":115,"material":0,"mode":4},{"attributes":{"NORMAL":69,"POSITION":22},"indices":116,"material":0,"mode":4},{"attributes":{"NORMAL":70,"POSITION":23},"indices":117,"material":0,"mode":4},{"attributes":{"NORMAL":71,"POSITION":24},"indices":118,"material":0,"mode":4},{"attributes":{"NORMAL":72,"POSITION":25},"indices":119,"material":0,"mode":4},{"attributes":{"NORMAL":73,"POSITION":26},"indices":120,"material":0,"mode":4},{"attributes":{"NORMAL":74,"POSITION":27},"indices":121,"material":0,"mode":4},{"attributes":{"NORMAL":75,"POSITION":28},"indices":122,"material":0,"mode":4},{"attributes":{"NORMAL":76,"POSITION":29},"indices":123,"material":0,"mode":4},{"attributes":{"NORMAL":77,"POSITION":30},"indices":124,"material":0,"mode":4},{"attributes":{"NORMAL":78,"POSITION":31},"indices":125,"material":0,"mode":4},{"attributes":{"NORMAL":79,"POSITION":32},"indices":126,"material":0,"mode":4},{"attributes":{"NORMAL":80,"POSITION":33},"indices":127,"material":0,"mode":4},{"attributes":{"NORMAL":81,"POSITION":34},"indices":128,"material":0,"mode":4},{"attributes":{"NORMAL":82,"POSITION":35},"indices":129,"material":0,"mode":4},{"attributes":{"NORMAL":83,"POSITION":36},"indices":130,"material":0,"mode":4},{"attributes":{"NORMAL":84,"POSITION":37},"indices":131,"material":0,"mode":4},{"attributes":{"NORMAL":85,"POSITION":38},"indices":132,"material":0,"mode":4},{"attributes":{"NORMAL":86,"POSITION":39},"indices":133,"material":0,"mode":4},{"attributes":{"NORMAL":87,"POSITION":40},"indices":134,"material":0,"mode":4},{"attributes":{"NORMAL":88,"POSITION":41},"indices":135,"material":0,"mode":4},{"attributes":{"NORMAL":89,"POSITION":42},"indices":136,"material":0,"mode":4},{"attributes":{"NORMAL":90,"POSITION":43},"indices":137,"material":0,"mode":4},{"attributes":{"NORMAL":91,"POSITION":44},"indices":138,"material":0,"mode":4},{"attributes":{"NORMAL":92,"POSITION":45},"indices":139,"material":0,"mode":4},{"attributes":{"NORMAL":93,"POSITION":46},"indices":140,"material":0,"mode":4}]}],"nodes":[{"children":[1,2],"name":"Model"},{"name":"LCS_Origin"},{"children":[3,4],"rotation":[-9.496892403510034e-17,1.0,-2.427968696160173e-16,-8.466395223080343e-33],"translation":[-3.4832480351978897e-19,-0.0027000000000000025,-0.0052499999999999998],"name":"tht001"},{"mesh":0,"name":"Body"},{"rotation":[0.7071067811865476,1.9553868033178673e-16,0.7071067811865475,3.997518847074628e-17],"translation":[-4.440892098500625e-19,0.0027,-0.00525],"name":"LCS_tht_1"}],"scene":0,"scenes":[{"nodes":[0]}]}